<svg width="162" height="86" viewBox="0 0 162 86" fill="none" xmlns="http://www.w3.org/2000/svg">
<path d="M50.44 14.82C44.05 14.82 39.22 19.38 39.22 25.44C39.22 31.59 43.93 36.24 50.26 36.24C53.35 36.24 56.68 34.71 58.93 32.4L55.81 29.1C54.34 30.6 52.3 31.56 50.53 31.56C47.2 31.56 44.68 28.89 44.68 25.38C44.68 21.93 47.2 19.29 50.53 19.29C52.39 19.29 54.43 20.34 55.81 22.02L58.9 18.36C56.8 16.2 53.56 14.82 50.44 14.82Z" fill="black"/>
<path d="M68.4899 19.65C63.1799 19.65 59.6399 22.92 59.6399 27.9C59.6399 32.88 63.1799 36.18 68.4899 36.18C73.7699 36.18 77.3099 32.88 77.3099 27.9C77.3099 22.92 73.7699 19.65 68.4899 19.65ZM68.4899 23.76C70.6199 23.76 72.0899 25.47 72.0899 27.96C72.0899 30.48 70.6199 32.16 68.4899 32.16C66.3299 32.16 64.8599 30.48 64.8599 27.96C64.8599 25.47 66.3299 23.76 68.4899 23.76Z" fill="black"/>
<path d="M101.691 19.59C99.0215 19.62 97.0415 20.85 95.9915 23.25C95.1815 20.97 93.2315 19.59 90.5915 19.59C88.2215 19.62 86.3615 20.58 85.2515 22.5V19.83H80.0915V36H85.2515V27.99C85.2515 25.8 86.4815 24.21 88.4615 24.15C90.1715 24.15 91.2215 25.32 91.2215 27.24V36H96.4115V27.99C96.4115 25.8 97.6115 24.21 99.5615 24.15C101.271 24.15 102.351 25.32 102.351 27.24V36H107.511V25.8C107.511 22.02 105.231 19.59 101.691 19.59Z" fill="black"/>
<path d="M121.375 19.65C119.335 19.65 117.685 20.49 116.545 21.96V19.83H111.355V41.82H116.545V33.84C117.685 35.34 119.395 36.18 121.495 36.18C126.025 36.18 128.965 32.91 128.965 27.99C128.965 22.98 125.935 19.65 121.375 19.65ZM120.115 32.07C118.015 32.07 116.545 30.36 116.545 27.84C116.545 25.38 118.015 23.64 120.115 23.64C122.275 23.64 123.745 25.38 123.745 27.84C123.745 30.33 122.275 32.07 120.115 32.07Z" fill="black"/>
<path d="M141.162 31.53C140.382 31.86 139.692 32.07 139.152 32.07C138.192 32.1 137.652 31.56 137.652 30.3V23.97H141.882V20.55H137.652V16.08H132.492V20.58H130.242V23.97H132.492V31.11C132.492 34.47 134.742 36.24 137.862 36.24C139.422 36.24 141.012 35.82 142.182 35.13L141.162 31.53Z" fill="black"/>
<path d="M151.771 19.65C146.761 19.65 143.341 22.95 143.341 27.96C143.341 32.88 146.641 36.18 151.921 36.18C154.891 36.18 157.321 35.13 158.971 33.33L156.241 30.66C155.161 31.74 153.781 32.31 152.371 32.31C150.451 32.31 149.071 31.23 148.561 29.31H159.931C160.291 23.4 157.471 19.65 151.771 19.65ZM148.471 26.52C148.801 24.57 150.031 23.25 151.831 23.25C153.691 23.25 154.951 24.54 154.951 26.52H148.471Z" fill="black"/>
<path d="M51.34 46.59C48.94 46.62 47.05 47.58 45.91 49.5V40.74H40.72V63H45.91V55.02C45.91 52.8 47.17 51.18 49.21 51.18C50.98 51.18 52.06 52.35 52.06 54.24V63H57.25V52.8C57.25 49.02 54.91 46.59 51.34 46.59Z" fill="black"/>
<path d="M67.982 46.65C62.972 46.65 59.552 49.95 59.552 54.96C59.552 59.88 62.852 63.18 68.132 63.18C71.102 63.18 73.532 62.13 75.182 60.33L72.452 57.66C71.372 58.74 69.992 59.31 68.582 59.31C66.662 59.31 65.282 58.23 64.772 56.31H76.142C76.502 50.4 73.682 46.65 67.982 46.65ZM64.682 53.52C65.012 51.57 66.242 50.25 68.042 50.25C69.902 50.25 71.162 51.54 71.162 53.52H64.682Z" fill="black"/>
<path d="M94.6989 46.83H89.5089V54.81C89.5089 57 88.3389 58.62 86.3589 58.65C84.7089 58.65 83.6589 57.48 83.6589 55.56V46.83H78.4689V57.03C78.4689 60.81 80.7489 63.21 84.2589 63.21C86.5989 63.21 88.3989 62.25 89.5089 60.33V63H94.6989V46.83Z" fill="black"/>
<path d="M104.031 46.83H98.8415V63H104.031V54.69C104.301 52.41 106.281 51 109.281 51.27V46.59C106.971 46.62 105.141 47.67 104.031 49.56V46.83Z" fill="black"/>
<path d="M118.724 46.65C113.714 46.65 110.294 49.95 110.294 54.96C110.294 59.88 113.594 63.18 118.874 63.18C121.844 63.18 124.274 62.13 125.924 60.33L123.194 57.66C122.114 58.74 120.734 59.31 119.324 59.31C117.404 59.31 116.024 58.23 115.514 56.31H126.884C127.244 50.4 124.424 46.65 118.724 46.65ZM115.424 53.52C115.754 51.57 116.984 50.25 118.784 50.25C120.644 50.25 121.904 51.54 121.904 53.52H115.424Z" fill="black"/>
<path d="M135.481 46.59C131.731 46.59 128.911 48.39 128.911 51.72C128.881 57.39 137.251 56.16 137.251 58.53C137.251 59.28 136.501 59.64 135.481 59.64C133.681 59.64 131.581 58.92 129.751 57.63L128.101 60.93C130.051 62.43 132.661 63.21 135.361 63.21C139.261 63.21 142.171 61.38 142.171 58.05C142.201 52.41 133.681 53.49 133.681 51.27C133.681 50.52 134.341 50.16 135.271 50.16C136.621 50.16 138.421 50.73 140.371 51.78L142.141 48.42C140.161 47.25 137.821 46.59 135.481 46.59Z" fill="black"/>
<path d="M34.6629 78.0493L34.654 61.7018C34.654 61.0254 34.1005 60.4761 33.4189 60.4761C32.7374 60.4761 32.1838 61.0254 32.1838 61.7018L32.1928 78.0463C30.5321 78.5662 29.3208 80.1108 29.3208 81.9302C29.3208 84.1748 31.16 86.0001 33.4219 86.0001C35.6838 86.0001 37.523 84.1748 37.523 81.9302C37.523 80.1138 36.3206 78.5721 34.6629 78.0493ZM33.4219 83.5457C32.5231 83.5457 31.791 82.8192 31.791 81.9272C31.791 81.0353 32.5231 80.3087 33.4219 80.3087C34.3207 80.3087 35.0528 81.0353 35.0528 81.9272C35.0528 82.8221 34.3207 83.5457 33.4219 83.5457Z" fill="#EB1E54"/>
<path d="M24.5053 41.9489C23.0976 41.9489 21.9578 43.08 21.9578 44.477C21.9578 45.874 23.0976 47.0052 24.5053 47.0052C25.913 47.0052 27.0529 45.874 27.0529 44.477C27.0529 43.08 25.9101 41.9489 24.5053 41.9489Z" fill="#EB1E54"/>
<path d="M24.5055 58.896C23.824 58.896 23.2704 59.4454 23.2704 60.1217V69.9184C23.2704 70.8517 22.6008 71.6314 21.7139 71.8116C21.1752 70.1842 19.6336 69.0058 17.8181 69.0058C15.5563 69.0058 13.717 70.8311 13.717 73.0757C13.717 75.3203 15.5563 77.1456 17.8181 77.1456C19.6574 77.1456 21.2169 75.9376 21.7377 74.2807C23.9817 74.071 25.7436 72.1956 25.7436 69.9155V60.1188C25.7406 59.4424 25.187 58.896 24.5055 58.896ZM17.8152 74.6972C16.9164 74.6972 16.1842 73.9706 16.1842 73.0787C16.1842 72.1867 16.9164 71.4601 17.8152 71.4601C18.714 71.4601 19.4461 72.1867 19.4461 73.0787C19.4461 73.9706 18.714 74.6972 17.8152 74.6972Z" fill="#EB1E54"/>
<path d="M16.8241 61.0697V58.0306H18.1365C18.8181 58.0306 19.3716 57.4812 19.3716 56.8049C19.3716 56.1286 18.8181 55.5792 18.1365 55.5792H13.0384C8.45221 55.5792 4.72015 51.8755 4.72015 47.3242C4.72015 42.7729 8.45221 39.0692 13.0354 39.0692L13.1426 39.0722C13.4878 39.0811 13.836 38.9304 14.0741 38.6705C14.3122 38.4106 14.4253 38.0621 14.3896 37.7136C14.3122 37.0195 14.2735 36.3195 14.2735 35.6314C14.2735 25.1554 22.8626 16.6316 33.4189 16.6316C34.1005 16.6316 34.654 16.0823 34.654 15.4059C34.654 14.7296 34.1005 14.1802 33.4189 14.1802C21.4995 14.1802 11.8004 23.8056 11.8004 35.6343C11.8004 35.9828 11.8093 36.3343 11.8271 36.6858C6.4463 37.2794 2.24996 41.8219 2.24996 47.3213C2.24996 53.2253 7.08914 58.0306 13.0414 58.0306H14.3539V61.0697C14.3539 62.1359 13.4789 63.0043 12.4045 63.0043H8.51173C7.98496 61.3562 6.43142 60.1601 4.6011 60.1601C2.33925 60.1601 0.5 61.9853 0.5 64.23C0.5 66.4746 2.33925 68.2999 4.6011 68.2999C6.43142 68.2999 7.98793 67.1037 8.51173 65.4557H12.4015C14.839 65.4557 16.8241 63.4886 16.8241 61.0697ZM4.59812 65.8485C3.69934 65.8485 2.96721 65.1219 2.96721 64.23C2.96721 63.338 3.69934 62.6114 4.59812 62.6114C5.49691 62.6114 6.22904 63.338 6.22904 64.23C6.22904 65.1219 5.49691 65.8485 4.59812 65.8485Z" fill="#EB1E54"/>
</svg>
